<svg xmlns="http://www.w3.org/2000/svg" xmlns:xlink="http://www.w3.org/1999/xlink" width="34" height="26" viewBox="0 0 34 26">
    <defs>
        <filter id="v0zq24ws4a" width="125%" height="135%" x="-12.5%" y="-12.5%" filterUnits="objectBoundingBox">
            <feOffset dy="1" in="SourceAlpha" result="shadowOffsetOuter1"/>
            <feGaussianBlur in="shadowOffsetOuter1" result="shadowBlurOuter1" stdDeviation="1"/>
            <feColorMatrix in="shadowBlurOuter1" values="0 0 0 0 0 0 0 0 0 0 0 0 0 0 0 0 0 0 0.24 0"/>
        </filter>
        <rect id="wcfz519lzb" width="28" height="20" x="3" y="3" rx="10"/>
    </defs>
    <g fill="none" fill-rule="evenodd">
        <g>
            <g>
                <g>
                    <g>
                        <g transform="translate(-1813.000000, -223.000000) translate(10.000000, 157.000000) translate(0.000000, 27.000000) translate(1803.000000, 39.000000)">
                            <use fill="#000" filter="url(#v0zq24ws4a)" xlink:href="#wcfz519lzb"/>
                            <use fill="#34ADD4" xlink:href="#wcfz519lzb"/>
                        </g>
                        <path fill="#FFF" d="M22.906 6.969c.057.047.11.1.157.156l.137.165c.463.556.463 1.364 0 1.92l-6.387 7.665c-.082.098-.177.18-.279.246-.037.083-.083.163-.136.24l-.273.389c-.338.483-1.004.6-1.488.262-.102-.071-.19-.16-.262-.262l-3.773-5.39c-.361-.516-.361-1.204 0-1.72l.273-.39c.338-.483 1.004-.6 1.488-.262.102.071.19.16.262.262l2.72 3.885 5.842-7.01c.432-.518 1.201-.588 1.72-.156z" transform="translate(-1813.000000, -223.000000) translate(10.000000, 157.000000) translate(0.000000, 27.000000) translate(1803.000000, 39.000000)"/>
                    </g>
                </g>
            </g>
        </g>
    </g>
</svg>
