<svg xmlns="http://www.w3.org/2000/svg" width="27" height="27" viewBox="0 0 27 27">
    <g fill="none" fill-rule="evenodd">
        <g fill="#FFF">
            <g>
                <g>
                    <path d="M21.433 19.165H5.573c-.547.033-1.067-.238-1.353-.705-.287-.466-.293-1.052-.017-1.525l2.78-4.91c.268-.437.834-.582 1.28-.328.445.253.609.815.37 1.268l-2.43 4.3h14.61l-2.44-4.3c-.24-.453-.075-1.015.37-1.268.445-.254 1.011-.109 1.28.328l2.76 4.86c.283.488.287 1.089.01 1.58-.3.455-.816.72-1.36.7z" transform="translate(-1819.000000, -78.000000) translate(0.000000, 71.000000) translate(1819.977318, 7.024998)"/>
                    <path d="M13.503 22.975c-2.1-.007-3.799-1.71-3.8-3.81 0-.525.425-.95.95-.95.524 0 .95.425.95.95 0 1.05.85 1.9 1.9 1.9 1.049 0 1.9-.85 1.9-1.9 0-.525.425-.95.95-.95.524 0 .95.425.95.95.001 2.101-1.7 3.806-3.8 3.81zM19.203 10.595c-.525 0-.95-.425-.95-.95 0-2.623-2.127-4.75-4.75-4.75-2.624 0-4.75 2.127-4.75 4.75 0 .522-.423.945-.945.945s-.945-.423-.945-.945c0-2.374 1.266-4.568 3.322-5.755 2.056-1.187 4.59-1.187 6.645 0 2.056 1.187 3.323 3.381 3.323 5.755-.004.523-.427.947-.95.95z" transform="translate(-1819.000000, -78.000000) translate(0.000000, 71.000000) translate(1819.977318, 7.024998)"/>
                    <path d="M7.803 13.455c-.252-.003-.493-.105-.67-.285-.175-.18-.273-.423-.27-.675v-2.85c0-.522.423-.945.945-.945s.945.423.945.945v2.85c.002.254-.097.497-.276.678-.178.18-.42.281-.674.282zM19.203 13.455c-.254 0-.497-.102-.675-.282-.178-.18-.277-.424-.275-.678v-2.85c0-.525.425-.95.95-.95.524 0 .95.425.95.95v2.85c0 .527-.424.956-.95.96z" transform="translate(-1819.000000, -78.000000) translate(0.000000, 71.000000) translate(1819.977318, 7.024998)"/>
                </g>
            </g>
        </g>
    </g>
</svg>
