<svg xmlns="http://www.w3.org/2000/svg" width="26" height="26" viewBox="0 0 26 26">
    <g fill="none" fill-rule="evenodd">
        <g>
            <g>
                <g>
                    <path d="M0 0H26V26H0z" transform="translate(-1848.000000, -78.000000) translate(0.000000, 71.000000) translate(1848.000000, 7.000000)"/>
                    <path fill="#FFF" d="M20.73 15.73h-.02c-.1.27-.21.53-.33.79l.01.02c.427.425.668 1.002.668 1.605s-.24 1.18-.668 1.605l-.64.64c-.425.427-1.002.668-1.605.668s-1.18-.24-1.605-.668l-.02-.01c-.26.12-.52.23-.79.33v.02c-.004 1.256-1.024 2.272-2.28 2.27h-.9c-1.256.002-2.276-1.014-2.28-2.27v-.02c-.27-.1-.53-.21-.79-.33l-.02.01c-.425.427-1.002.668-1.605.668s-1.18-.24-1.605-.668l-.64-.64c-.427-.425-.668-1.002-.668-1.605s.24-1.18.668-1.605l.01-.02c-.12-.26-.23-.52-.33-.79h-.02c-1.256-.004-2.272-1.024-2.27-2.28v-.9c-.002-1.256 1.014-2.276 2.27-2.28h.02c.1-.27.21-.53.33-.79l-.01-.02c-.427-.425-.668-1.002-.668-1.605s.24-1.18.668-1.605l.64-.64c.425-.427 1.002-.668 1.605-.668s1.18.24 1.605.668l.02.01c.26-.12.52-.23.79-.33v-.02c.004-1.256 1.024-2.272 2.28-2.27h.9c1.256-.002 2.276 1.014 2.28 2.27v.02c.27.1.53.21.79.33l.02-.01c.425-.427 1.002-.668 1.605-.668s1.18.24 1.605.668l.64.64c.427.425.668 1.002.668 1.605s-.24 1.18-.668 1.605l-.01.02c.12.26.23.52.33.79h.02c1.256.004 2.272 1.024 2.27 2.28v.9c.002 1.256-1.014 2.276-2.27 2.28zm.45-3.18c.003-.121-.044-.238-.128-.325-.085-.086-.2-.135-.322-.135h-1.44c-.158-1.047-.577-2.038-1.22-2.88l1.04-1.03c.17-.18.17-.46 0-.64l-.65-.65c-.18-.17-.46-.17-.64 0l-1.03 1.04c-.843-.636-1.834-1.05-2.88-1.2V5.27c0-.121-.049-.237-.135-.322-.087-.084-.204-.13-.325-.128h-.9c-.121-.003-.238.044-.325.128-.086.085-.135.2-.135.322v1.46c-1.046.15-2.037.564-2.88 1.2L8.18 6.89c-.18-.17-.46-.17-.64 0l-.65.65c-.17.18-.17.46 0 .64l1.04 1.03c-.643.842-1.062 1.833-1.22 2.88H5.27c-.121 0-.237.049-.322.135-.084.087-.13.204-.128.325v.9c-.003.121.044.238.128.325.085.086.2.135.322.135h1.44c.158 1.047.577 2.038 1.22 2.88l-1.04 1.03c-.17.18-.17.46 0 .64l.65.65c.18.17.46.17.64 0l1.03-1.04c.843.636 1.834 1.05 2.88 1.2v1.46c0 .121.049.237.135.322.087.084.204.13.325.128h.9c.121.003.238-.044.325-.128.086-.085.135-.2.135-.322v-1.46c1.046-.15 2.037-.564 2.88-1.2l1.03 1.04c.18.17.46.17.64 0l.65-.65c.17-.18.17-.46 0-.64l-1.04-1.03c.643-.842 1.062-1.833 1.22-2.88h1.44c.121 0 .237-.049.322-.135.084-.087.13-.204.128-.325v-.9zM13 16.64c-2.01 0-3.64-1.63-3.64-3.64 0-2.01 1.63-3.64 3.64-3.64 2.01 0 3.64 1.63 3.64 3.64 0 2.01-1.63 3.64-3.64 3.64zm0-5.46c-1.005 0-1.82.815-1.82 1.82 0 1.005.815 1.82 1.82 1.82 1.005 0 1.82-.815 1.82-1.82-.004-1.004-.816-1.816-1.82-1.82z" transform="translate(-1848.000000, -78.000000) translate(0.000000, 71.000000) translate(1848.000000, 7.000000)"/>
                </g>
            </g>
        </g>
    </g>
</svg>
