<svg xmlns="http://www.w3.org/2000/svg" width="17" height="17" viewBox="0 0 17 17">
    <g fill="none" fill-rule="evenodd">
        <g fill="#333">
            <g>
                <g>
                    <g>
                        <g>
                            <path d="M7 0c3.866 0 7 3.134 7 7 0 1.625-.554 3.12-1.483 4.309l4.08 4.08-1.415 1.414-4.11-4.109C9.925 13.516 8.52 14 7 14c-3.866 0-7-3.134-7-7s3.134-7 7-7zm0 2C4.239 2 2 4.239 2 7s2.239 5 5 5 5-2.239 5-5-2.239-5-5-5z" transform="translate(-1877.000000, -194.000000) translate(10.000000, 190.000000) translate(1660.000000, 0.000000) translate(30.000000, 0.000000) translate(177.000000, 4.000000)"/>
                        </g>
                    </g>
                </g>
            </g>
        </g>
    </g>
</svg>
