<svg xmlns="http://www.w3.org/2000/svg" width="26" height="26" viewBox="0 0 26 26">
    <g fill="none" fill-rule="evenodd">
        <g>
            <g>
                <g>
                    <path d="M0 0H26V26H0z" transform="translate(-1876.000000, -78.000000) translate(0.000000, 71.000000) translate(1876.000000, 7.000000)"/>
                    <path fill="#FFF" d="M21.19 22h-9.1c-.997.002-1.806-.804-1.81-1.8v-2.7c0-.5.405-.905.905-.905s.905.405.905.905v2.7h9.1V5.8h-9.1v2.7c0 .5-.405.905-.905.905S10.28 9 10.28 8.5V5.8c.004-.996.813-1.802 1.81-1.8h9.1c.998-.002 1.811.802 1.82 1.8v14.4c-.009.998-.822 1.802-1.82 1.8z" transform="translate(-1876.000000, -78.000000) translate(0.000000, 71.000000) translate(1876.000000, 7.000000)"/>
                    <path fill="#FFF" d="M16.63 13.9H3.91c-.497 0-.9-.403-.9-.9s.403-.9.9-.9h12.72c.497 0 .9.403.9.9s-.403.9-.9.9z" transform="translate(-1876.000000, -78.000000) translate(0.000000, 71.000000) translate(1876.000000, 7.000000)"/>
                    <path fill="#FFF" d="M7.55 17.5c-.24 0-.469-.093-.64-.26l-3.64-3.6C3.097 13.472 3 13.241 3 13s.097-.472.27-.64l3.64-3.6c.355-.35.925-.35 1.28 0 .172.168.27.399.27.64s-.098.472-.27.64L5.2 13l2.99 2.96c.172.168.27.399.27.64s-.098.472-.27.64c-.173.165-.402.258-.64.26z" transform="translate(-1876.000000, -78.000000) translate(0.000000, 71.000000) translate(1876.000000, 7.000000)"/>
                </g>
            </g>
        </g>
    </g>
</svg>
