<svg xmlns="http://www.w3.org/2000/svg" width="24" height="24" viewBox="0 0 24 24">
    <g fill="none" fill-rule="evenodd">
        <g>
            <g>
                <g>
                    <path fill="#F5F5F5" stroke="silver" d="M0.5 0.5H23.5V23.5H0.5z" transform="translate(-849.000000, -977.000000) translate(10.000000, 190.000000) translate(839.000000, 787.000000)"/>
                    <path fill="#3F3F3F" d="M12 8v2h-1v1h-1v2h1v1h1v2h-1v-1h-1v-1H9v-1H8v-2h1v-1h1V9h1V8h1zm3 3h-1v2h1v1h1v2h-1v-1h-1v-1h-1v-1h-1v-2h1v-1h1V9h1V8h1v2h-1v1z" transform="translate(-849.000000, -977.000000) translate(10.000000, 190.000000) translate(839.000000, 787.000000)"/>
                </g>
            </g>
        </g>
    </g>
</svg>
