<svg xmlns="http://www.w3.org/2000/svg" width="24" height="24" viewBox="0 0 24 24">
    <g fill="none" fill-rule="evenodd">
        <g>
            <g>
                <g>
                    <g>
                        <path fill="#F5F5F5" stroke="silver" d="M0.5 0.5H23.5V23.5H0.5z" transform="translate(-1047.000000, -977.000000) translate(10.000000, 190.000000) translate(839.000000, 787.000000) translate(198.000000, 0.000000)"/>
                        <path fill="#3F3F3F" d="M13 8v1h1v1h1v1h1v2h-1v1h-1v1h-1v1h-1v-2h1v-1h1v-2h-1v-1h-1V8h1zM9 8v1h1v.999L11 10v4h-1v1l-1-.001V16H8v-2l.999-.001L9 13h1v-2H9l-.001-1H8V8h1zm3 3v2h-1v-2h1z" transform="translate(-1047.000000, -977.000000) translate(10.000000, 190.000000) translate(839.000000, 787.000000) translate(198.000000, 0.000000)"/>
                    </g>
                </g>
            </g>
        </g>
    </g>
</svg>
