<svg xmlns="http://www.w3.org/2000/svg" width="12" height="12" viewBox="0 0 12 12">
    <g fill="none" fill-rule="evenodd">
        <g>
            <g>
                <g>
                    <g>
                        <g>
                            <g>
                                <g>
                                    <path d="M0 0H12V12H0z" transform="translate(-556.000000, -716.000000) translate(530.000000, 142.000000) translate(15.000000, 50.000000) translate(0.000000, 414.000000) translate(1.000000, 38.000000) translate(10.000000, 68.000000) translate(0.000000, 4.000000)"/>
                                    <path fill="#000" d="M2.818 3v1.76c.01.096.17.865 2.727.865l.909-.001V3L11 6.5 6.455 10l-.001-2.626H4.602C4.232 7.367 1 7.226 1 4.75V3h1.818z" transform="translate(-556.000000, -716.000000) translate(530.000000, 142.000000) translate(15.000000, 50.000000) translate(0.000000, 414.000000) translate(1.000000, 38.000000) translate(10.000000, 68.000000) translate(0.000000, 4.000000)"/>
                                </g>
                            </g>
                        </g>
                    </g>
                </g>
            </g>
        </g>
    </g>
</svg>
